<svg width="216" height="51" viewBox="0 0 216 51" fill="none" xmlns="http://www.w3.org/2000/svg">
<path d="M105.442 26.4766H100.176V50.3126H105.442V26.4766Z" fill="black"/>
<path d="M88.3506 41.8062C91.3947 40.6842 93.48 38.2733 93.48 34.4219V34.3461C93.48 29.4485 90.101 26.4766 84.454 26.4766H73.5254V50.3126H78.7918V42.6857H82.9319L88.0614 50.3126H94.2106L88.3506 41.8062ZM88.1375 34.6797C88.1375 36.6963 86.661 38.0458 84.1039 38.0458H78.7766V31.2074H84.0126C86.5697 31.2074 88.1527 32.3598 88.1527 34.6039V34.6797H88.1375Z" fill="black"/>
<path d="M59.339 26.3086H54.2095L44.2246 50.3114H49.5976L51.7894 44.959H61.9113L64.1031 50.3114H69.5979L59.339 26.3086ZM53.6616 40.3343L56.8427 32.6012L60.0239 40.3343H53.6616Z" fill="black"/>
<path d="M26.9785 50.3131H41.2253V45.5519H32.245V26.4922H26.9785V50.3131Z" fill="black"/>
<path d="M6.34005 38.3938V38.318C6.34005 34.2392 9.24725 30.9034 13.2808 30.9034C15.6705 30.9034 17.5579 31.9193 19.3996 33.5872L22.7482 29.7358C20.5259 27.5524 17.8318 26.0664 13.3112 26.0664C5.95953 26.0664 0.830078 31.616 0.830078 38.3938V38.4545C0.830078 45.2929 6.06608 50.7061 13.0981 50.7061C17.7101 50.7061 20.4498 49.0685 22.9004 46.4453L19.5518 43.0792C17.6644 44.7774 15.9901 45.8691 13.2656 45.8691C9.17114 45.8843 6.34005 42.4878 6.34005 38.3938Z" fill="black"/>
<path d="M124.712 26.3086H119.857L109.598 50.3114H114.971L117.162 44.959H127.284L129.476 50.3114H134.986L124.712 26.3086ZM119.035 40.3343L122.216 32.6012L125.397 40.3343H119.035Z" fill="black"/>
<path d="M155.672 50.3126H160.162V26.4766H154.957V41.1542L143.754 26.4766H138.898V50.3126H144.089V35.1649L155.672 50.3126Z" fill="black"/>
<path d="M184.956 31.3135V26.4766H165.139V31.3135H172.414V50.3126H177.681V31.3135H184.956Z" fill="black"/>
<path fill-rule="evenodd" clip-rule="evenodd" d="M202.858 12.0411H215.795V0.699219H194.227C191.838 0.699219 189.92 2.62491 189.92 4.99032V22.185C189.92 24.5656 191.853 26.4761 194.227 26.4761H215.795V15.1343H202.858C202.005 15.1343 201.305 14.4368 201.305 13.5877C201.305 12.7386 202.005 12.0411 202.858 12.0411Z" fill="black"/>
</svg>
